<svg data-v-423bf9ae="" xmlns="http://www.w3.org/2000/svg" viewBox="0 0 719 90" class="iconLeft"><!----><!----><!----><g data-v-423bf9ae="" id="5fb3266a-733f-4748-a927-e2dab38f7ee6" fill="white" transform="matrix(5.71973320392212,0,0,5.71973320392212,166.5650991325337,-3.817922022713269)"><path d="M8.22 12.05L3.18 12.05L3.18 9.51L7.73 9.51L7.73 7.98L3.18 7.98L3.18 5.43L8.08 5.43L8.08 3.92L1.25 3.92L1.25 13.58L8.22 13.58ZM16.45 8.02C16.30 6.72 15.39 5.94 13.80 5.94C13.09 5.94 12.54 6.08 12.01 6.45L11.44 7.34L11.44 6.13L9.51 6.13L9.51 13.58L11.44 13.58L11.44 10.18C11.44 8.11 12.18 7.29 13.12 7.29C14.06 7.29 14.49 7.83 14.55 8.61C14.57 8.99 14.57 9.34 14.57 9.65L14.57 13.58L16.51 13.58L16.51 9.38C16.51 8.78 16.49 8.40 16.45 8.02ZM25.44 3.29L23.51 3.29L23.51 7.13L23.02 6.36C22.64 6.09 21.88 5.94 21.27 5.94C19.35 5.94 17.70 7.29 17.70 10.00C17.70 12.19 18.93 13.78 21.01 13.78C21.77 13.78 22.53 13.58 22.95 13.26L23.51 12.43L23.51 13.58L25.44 13.58ZM21.57 12.42C20.43 12.42 19.70 11.40 19.70 9.87C19.70 8.15 20.52 7.29 21.64 7.29C22.54 7.29 23.51 7.90 23.51 9.58L23.51 9.94C23.51 11.76 22.64 12.42 21.57 12.42ZM31.02 5.95C30.60 5.95 30.11 6.12 29.75 6.45L29.16 7.49L29.16 6.13L27.23 6.13L27.23 13.58L29.16 13.58L29.16 10.16C29.16 8.16 29.96 7.45 31.57 7.56L31.57 6.01C31.40 5.96 31.25 5.95 31.02 5.95ZM39.24 9.70C39.24 7.67 38.04 5.94 35.76 5.94C33.47 5.94 31.98 7.60 31.98 9.88C31.98 12.50 33.56 13.78 35.60 13.78C37.35 13.78 38.75 12.89 39.13 11.16L37.20 11.16C37.07 11.96 36.47 12.42 35.64 12.42C34.75 12.42 34.05 11.93 33.92 10.36L39.21 10.36C39.24 10.11 39.24 9.88 39.24 9.70ZM35.67 7.29C36.60 7.29 37.13 7.92 37.25 9.10L33.98 9.10C34.15 7.87 34.78 7.29 35.67 7.29ZM43.23 5.94C41.45 5.94 40.28 6.80 40.28 8.23C40.28 9.52 41.23 10.12 42.62 10.47C43.90 10.79 44.39 11.12 44.39 11.69C44.39 12.24 43.92 12.50 43.30 12.50C42.63 12.50 42.07 12.12 41.92 11.31L39.98 11.31C40.19 12.99 41.47 13.78 43.27 13.78C44.98 13.78 46.34 13.05 46.34 11.55C46.34 10.18 45.44 9.56 43.92 9.17C42.69 8.86 42.22 8.57 42.22 8.01C42.22 7.55 42.53 7.21 43.11 7.21C43.75 7.21 44.13 7.60 44.25 8.29L46.19 8.29C46.02 6.93 45.01 5.94 43.23 5.94ZM50.34 10.16L50.34 9.07L47.10 9.07L47.10 10.16ZM56.46 8.65L56.46 10.16L58.51 10.16C58.31 11.52 57.43 12.33 56.18 12.33C54.67 12.33 53.55 11.10 53.55 8.69C53.55 6.50 54.67 5.17 56.24 5.17C57.53 5.17 58.25 5.87 58.49 7.06L58.52 7.20L60.45 7.20L60.44 7.06C60.24 5.15 58.88 3.72 56.27 3.72C53.56 3.72 51.51 5.64 51.51 8.81C51.51 11.87 53.20 13.78 55.89 13.78C56.95 13.78 57.69 13.52 58.24 12.99L58.67 12.01L58.80 13.58L60.35 13.58L60.35 8.65ZM66.32 13.58L68.21 13.58C68.10 12.75 68.07 12.25 68.07 11.69L68.07 9.28C68.07 8.88 68.05 8.48 68.03 8.13C67.91 6.85 67.13 5.94 65.04 5.94C63.27 5.94 61.91 6.89 61.85 8.57L63.73 8.55C63.78 7.74 64.20 7.29 64.97 7.29C65.73 7.29 66.07 7.67 66.12 8.19C66.15 8.44 66.15 8.67 66.15 8.89L66.15 9.04L65.67 9.04C62.97 9.04 61.57 9.97 61.57 11.61C61.57 13.02 62.68 13.78 63.97 13.78C64.67 13.78 65.30 13.64 65.81 13.29L66.18 12.49ZM64.71 12.42C64.02 12.42 63.57 12.11 63.57 11.45C63.57 10.47 64.61 10.12 66.15 10.23L66.15 10.84C66.15 11.87 65.49 12.42 64.71 12.42ZM80.92 7.78C80.75 6.76 79.94 5.94 78.53 5.94C77.85 5.94 77.35 6.08 76.93 6.37L76.20 7.35C75.91 6.54 75.14 5.94 73.92 5.94C73.25 5.94 72.76 6.08 72.34 6.37L71.79 7.27L71.79 6.13L69.86 6.13L69.86 13.58L71.79 13.58L71.79 9.76C71.79 8.04 72.27 7.29 73.14 7.29C73.88 7.29 74.31 7.71 74.41 8.48C74.45 8.86 74.47 9.27 74.47 9.70L74.47 13.58L76.38 13.58L76.38 9.76C76.38 8.04 76.87 7.29 77.74 7.29C78.48 7.29 78.90 7.71 79.00 8.48C79.04 8.86 79.06 9.27 79.06 9.70L79.06 13.58L80.99 13.58L80.99 9.14C80.99 8.54 80.98 8.16 80.92 7.78ZM89.45 9.70C89.45 7.67 88.24 5.94 85.96 5.94C83.68 5.94 82.18 7.60 82.18 9.88C82.18 12.50 83.76 13.78 85.81 13.78C87.56 13.78 88.96 12.89 89.33 11.16L87.40 11.16C87.28 11.96 86.67 12.42 85.85 12.42C84.95 12.42 84.25 11.93 84.13 10.36L89.42 10.36C89.45 10.11 89.45 9.88 89.45 9.70ZM85.88 7.29C86.80 7.29 87.33 7.92 87.46 9.10L84.18 9.10C84.35 7.87 84.98 7.29 85.88 7.29ZM93.44 5.94C91.66 5.94 90.48 6.80 90.48 8.23C90.48 9.52 91.43 10.12 92.82 10.47C94.11 10.79 94.60 11.12 94.60 11.69C94.60 12.24 94.12 12.50 93.51 12.50C92.83 12.50 92.27 12.12 92.12 11.31L90.19 11.31C90.40 12.99 91.67 13.78 93.48 13.78C95.19 13.78 96.54 13.05 96.54 11.55C96.54 10.18 95.65 9.56 94.12 9.17C92.89 8.86 92.43 8.57 92.43 8.01C92.43 7.55 92.74 7.21 93.31 7.21C93.95 7.21 94.33 7.60 94.46 8.29L96.39 8.29C96.22 6.93 95.21 5.94 93.44 5.94Z"></path></g><!----><g data-v-423bf9ae="" id="0a8110c5-0d5e-4c7c-9ff0-86ffe3213b74" transform="matrix(4.803586662404586,0,0,4.803586662404586,0.14261340152661717,-31.22538662899096)" stroke="none" fill="white"><path d="M16 19.586l7.496-12.954H8.504zM7.496 12.414L0 25.368h14.992zM24.504 12.414l-7.496 12.954H32z"></path></g><!----></svg>